<svg width="211" height="26" viewBox="0 0 211 26" fill="none" xmlns="http://www.w3.org/2000/svg">
<path d="M208.852 21.0904L205.522 16.4075C205.147 16.4491 204.758 16.4699 204.356 16.4699H200.443V21.0904H198.903V6.52136H204.356C206.215 6.52136 207.672 6.96537 208.727 7.85339C209.781 8.74141 210.309 9.96243 210.309 11.5165C210.309 12.6542 210.017 13.6186 209.434 14.4095C208.866 15.1865 208.047 15.7484 206.978 16.0953L210.537 21.0904H208.852ZM204.314 15.1587C205.757 15.1587 206.861 14.8396 207.624 14.2013C208.387 13.5631 208.768 12.6681 208.768 11.5165C208.768 10.3371 208.387 9.43517 207.624 8.81078C206.861 8.17252 205.757 7.85339 204.314 7.85339H200.443V15.1587H204.314Z" fill="#F1F1F1"/>
<path d="M186.98 21.2153C185.537 21.2153 184.226 20.8961 183.046 20.2579C181.881 19.6057 180.965 18.7177 180.299 17.5938C179.647 16.4699 179.321 15.2073 179.321 13.8059C179.321 12.4045 179.647 11.1418 180.299 10.0179C180.965 8.89403 181.881 8.01295 183.046 7.37469C184.226 6.72255 185.537 6.39648 186.98 6.39648C188.423 6.39648 189.72 6.71562 190.872 7.35388C192.038 7.99214 192.953 8.88016 193.619 10.0179C194.285 11.1418 194.618 12.4045 194.618 13.8059C194.618 15.2073 194.285 16.4769 193.619 17.6146C192.953 18.7385 192.038 19.6196 190.872 20.2579C189.72 20.8961 188.423 21.2153 186.98 21.2153ZM186.98 19.8416C188.132 19.8416 189.172 19.5849 190.102 19.0715C191.032 18.5443 191.76 17.8228 192.287 16.907C192.815 15.9774 193.078 14.9437 193.078 13.8059C193.078 12.6681 192.815 11.6413 192.287 10.7256C191.76 9.79593 191.032 9.07441 190.102 8.56103C189.172 8.03377 188.132 7.77014 186.98 7.77014C185.828 7.77014 184.781 8.03377 183.837 8.56103C182.908 9.07441 182.172 9.79593 181.631 10.7256C181.104 11.6413 180.84 12.6681 180.84 13.8059C180.84 14.9437 181.104 15.9774 181.631 16.907C182.172 17.8228 182.908 18.5443 183.837 19.0715C184.781 19.5849 185.828 19.8416 186.98 19.8416Z" fill="#F1F1F1"/>
<path d="M170.861 7.85339H165.741V6.52136H177.522V7.85339H172.402V21.0904H170.861V7.85339Z" fill="#F1F1F1"/>
<path d="M161.615 11.7648C161.615 12.1359 161.314 12.4367 160.943 12.4367C160.572 12.4367 160.271 12.1359 160.271 11.7648C160.271 11.3937 160.572 11.0929 160.943 11.0929C161.314 11.0929 161.615 11.3937 161.615 11.7648Z" fill="#F1F1F1"/>
<path d="M147.015 13.9909H148.492V19.5479C147.812 20.1446 147.008 20.6024 146.078 20.9216C145.148 21.2407 144.17 21.4003 143.143 21.4003C141.686 21.4003 140.375 21.0811 139.21 20.4429C138.044 19.8046 137.128 18.9235 136.462 17.7996C135.796 16.6619 135.463 15.3923 135.463 13.9909C135.463 12.5895 135.796 11.3268 136.462 10.2029C137.128 9.06516 138.044 8.17714 139.21 7.53888C140.375 6.90061 141.693 6.58148 143.164 6.58148C144.274 6.58148 145.294 6.76186 146.224 7.12262C147.153 7.4695 147.937 7.98982 148.576 8.68359L147.618 9.66179C146.466 8.52402 145.003 7.95513 143.227 7.95513C142.047 7.95513 140.979 8.21876 140.021 8.74602C139.078 9.25941 138.336 9.98092 137.794 10.9106C137.253 11.8263 136.983 12.8531 136.983 13.9909C136.983 15.1286 137.253 16.1554 137.794 17.0712C138.336 17.987 139.078 18.7085 140.021 19.2357C140.965 19.763 142.026 20.0266 143.206 20.0266C144.704 20.0266 145.974 19.652 147.015 18.9027V13.9909Z" fill="#F1F1F1"/>
<path fill-rule="evenodd" clip-rule="evenodd" d="M159.573 3.55617C158.282 1.91934 156.131 1.34071 154.186 2.10705C153.756 2.27666 153.032 2.75885 152.704 3.0938C151.375 4.45377 150.998 6.44724 151.741 8.18683C151.797 8.31967 151.87 8.46711 151.901 8.5145C152.009 8.67663 152.248 8.64145 152.307 8.45474C152.328 8.38913 152.303 8.30502 152.189 8.04734C151.394 6.25431 151.937 4.18438 153.506 3.02281C154.949 1.95419 156.954 1.97065 158.408 3.06305C158.807 3.36278 159.066 3.6384 159.355 4.07162C159.936 4.93981 160.155 5.85143 160.036 6.90684C160.017 7.06901 160.02 7.21664 160.042 7.24947C160.107 7.3471 160.266 7.3791 160.363 7.31418C160.435 7.26652 160.455 7.21748 160.487 7.01985C160.67 5.85294 160.311 4.49208 159.573 3.55617ZM158.611 4.53278C158.424 4.50611 158.287 4.698 158.37 4.87144C158.393 4.91967 158.462 5.06274 158.523 5.18941C158.691 5.53603 158.797 6.00301 158.792 6.37548C158.79 6.52437 158.845 6.6015 158.974 6.62693C159.108 6.65357 159.222 6.58061 159.243 6.45559C159.308 6.05204 159.118 5.26388 158.839 4.78591C158.71 4.5643 158.692 4.54436 158.611 4.53278ZM157.639 3.52786C156.76 3.01111 155.831 2.91437 154.837 3.23611C154.607 3.31074 154.524 3.35538 154.125 3.62171C153.739 3.87871 153.647 3.95193 153.5 4.1206C152.735 4.99349 152.459 6.15301 152.756 7.24576C152.844 7.56866 152.98 7.6645 153.169 7.5382C153.278 7.46605 153.286 7.38844 153.211 7.12537C152.97 6.28357 153.15 5.32729 153.679 4.6328C153.947 4.28145 154.396 3.92612 154.792 3.75282C155.651 3.37687 156.644 3.4526 157.458 3.95593C157.577 4.02999 157.708 4.08731 157.749 4.08333C157.907 4.06784 158.009 3.85761 157.921 3.72651C157.902 3.69707 157.775 3.6077 157.639 3.52786Z" fill="#FFB100"/>
<mask id="path-7-outside-1_110_915" maskUnits="userSpaceOnUse" x="151.153" y="5.01263" width="16" height="21" fill="black">
<rect fill="white" x="151.153" y="5.01263" width="16" height="21"/>
<path fill-rule="evenodd" clip-rule="evenodd" d="M156.641 6.26903C156.505 6.16038 156.252 6.01589 155.94 6.01269C155.772 6.01096 155.595 6.05117 155.434 6.15089C155.276 6.24809 155.158 6.38681 155.07 6.55061L155.045 6.59722L152.196 20.5152C152.167 20.6253 152.148 20.7574 152.154 20.8921C152.16 21.0253 152.192 21.1995 152.307 21.3544C152.437 21.5292 152.648 21.6446 152.914 21.6603C153.152 21.6743 153.401 21.6073 153.651 21.4981L153.672 21.4891L157.036 19.6213L157.044 19.6168C157.05 19.6131 157.057 19.6094 157.065 19.6061C157.078 19.6287 157.097 19.6683 157.113 19.733C157.259 20.3053 158.045 23.0965 158.421 24.424C158.459 24.5858 158.575 24.7766 158.797 24.9103C159.037 25.0555 159.352 25.1043 159.717 25.0405C160.258 24.9459 160.7 24.8431 160.873 24.7982L162.387 24.4774L162.422 24.4644C162.755 24.3395 163.013 23.9663 162.914 23.446C162.839 23.0507 162.01 20.0444 161.606 18.5909C161.606 18.5887 161.606 18.5865 161.605 18.584C162.095 18.6221 164.225 18.832 165.26 18.9353L165.265 18.9359L165.8 18.9784L165.835 18.9766C166.015 18.9667 166.307 18.9093 166.524 18.7175C166.642 18.614 166.731 18.4754 166.759 18.3053C166.786 18.1398 166.752 17.971 166.677 17.806L166.654 17.7576L165.129 15.98L162.585 12.9503L162.263 13.829L164.409 16.4544L164.411 16.457L165.856 18.1411C165.86 18.1538 165.863 18.1639 165.864 18.1718C165.862 18.1724 165.861 18.1731 165.859 18.1738C165.857 18.1745 165.855 18.1751 165.853 18.1758C165.837 18.181 165.819 18.1847 165.804 18.187L165.357 18.1515C164.308 18.0467 162.091 17.8282 161.65 17.796C161.475 17.7833 161.302 17.8053 161.147 17.8758C160.991 17.9468 160.884 18.0528 160.817 18.162C160.691 18.365 160.692 18.5871 160.716 18.7219L160.719 18.7386L160.723 18.7551C161.133 20.2273 161.956 23.216 162.025 23.5756C162.041 23.6631 162.033 23.7157 162.025 23.7429L160.638 24.0368L160.626 24.0399C160.49 24.0755 160.068 24.1751 159.54 24.2674C159.449 24.2832 159.391 24.2809 159.358 24.2761C159.327 24.2715 159.313 24.264 159.309 24.2616C159.306 24.2596 159.304 24.2577 159.303 24.2563L159.303 24.2559L159.299 24.2439C158.922 22.9132 158.137 20.1236 157.994 19.562C157.901 19.1952 157.675 18.9124 157.298 18.8304C156.98 18.7609 156.694 18.8715 156.539 18.9634L153.228 20.8013C153.155 20.8322 153.098 20.8507 153.055 20.8613C153.053 20.8058 153.062 20.7407 153.077 20.6822L153.08 20.6727L155.911 6.84453C155.921 6.83011 155.929 6.81946 155.936 6.81181C155.939 6.80875 155.941 6.80619 155.943 6.80406C155.949 6.80571 155.957 6.80826 155.966 6.81221C155.981 6.8185 155.996 6.82625 156.008 6.83403L158.797 10.1168L159.717 9.83543L156.67 6.29266L156.641 6.26903Z"/>
</mask>
<path fill-rule="evenodd" clip-rule="evenodd" d="M156.641 6.26903C156.505 6.16038 156.252 6.01589 155.94 6.01269C155.772 6.01096 155.595 6.05117 155.434 6.15089C155.276 6.24809 155.158 6.38681 155.07 6.55061L155.045 6.59722L152.196 20.5152C152.167 20.6253 152.148 20.7574 152.154 20.8921C152.16 21.0253 152.192 21.1995 152.307 21.3544C152.437 21.5292 152.648 21.6446 152.914 21.6603C153.152 21.6743 153.401 21.6073 153.651 21.4981L153.672 21.4891L157.036 19.6213L157.044 19.6168C157.05 19.6131 157.057 19.6094 157.065 19.6061C157.078 19.6287 157.097 19.6683 157.113 19.733C157.259 20.3053 158.045 23.0965 158.421 24.424C158.459 24.5858 158.575 24.7766 158.797 24.9103C159.037 25.0555 159.352 25.1043 159.717 25.0405C160.258 24.9459 160.7 24.8431 160.873 24.7982L162.387 24.4774L162.422 24.4644C162.755 24.3395 163.013 23.9663 162.914 23.446C162.839 23.0507 162.01 20.0444 161.606 18.5909C161.606 18.5887 161.606 18.5865 161.605 18.584C162.095 18.6221 164.225 18.832 165.26 18.9353L165.265 18.9359L165.8 18.9784L165.835 18.9766C166.015 18.9667 166.307 18.9093 166.524 18.7175C166.642 18.614 166.731 18.4754 166.759 18.3053C166.786 18.1398 166.752 17.971 166.677 17.806L166.654 17.7576L165.129 15.98L162.585 12.9503L162.263 13.829L164.409 16.4544L164.411 16.457L165.856 18.1411C165.86 18.1538 165.863 18.1639 165.864 18.1718C165.862 18.1724 165.861 18.1731 165.859 18.1738C165.857 18.1745 165.855 18.1751 165.853 18.1758C165.837 18.181 165.819 18.1847 165.804 18.187L165.357 18.1515C164.308 18.0467 162.091 17.8282 161.65 17.796C161.475 17.7833 161.302 17.8053 161.147 17.8758C160.991 17.9468 160.884 18.0528 160.817 18.162C160.691 18.365 160.692 18.5871 160.716 18.7219L160.719 18.7386L160.723 18.7551C161.133 20.2273 161.956 23.216 162.025 23.5756C162.041 23.6631 162.033 23.7157 162.025 23.7429L160.638 24.0368L160.626 24.0399C160.49 24.0755 160.068 24.1751 159.54 24.2674C159.449 24.2832 159.391 24.2809 159.358 24.2761C159.327 24.2715 159.313 24.264 159.309 24.2616C159.306 24.2596 159.304 24.2577 159.303 24.2563L159.303 24.2559L159.299 24.2439C158.922 22.9132 158.137 20.1236 157.994 19.562C157.901 19.1952 157.675 18.9124 157.298 18.8304C156.98 18.7609 156.694 18.8715 156.539 18.9634L153.228 20.8013C153.155 20.8322 153.098 20.8507 153.055 20.8613C153.053 20.8058 153.062 20.7407 153.077 20.6822L153.08 20.6727L155.911 6.84453C155.921 6.83011 155.929 6.81946 155.936 6.81181C155.939 6.80875 155.941 6.80619 155.943 6.80406C155.949 6.80571 155.957 6.80826 155.966 6.81221C155.981 6.8185 155.996 6.82625 156.008 6.83403L158.797 10.1168L159.717 9.83543L156.67 6.29266L156.641 6.26903Z" fill="#FFB100"/>
<path d="M157.096 19.5972L157.108 19.7741L157.12 19.7726L157.096 19.5972ZM157.073 19.4217L157.073 19.4218L157.12 19.7726L157.12 19.7725L157.073 19.4217ZM157.096 19.5972C157.084 19.4206 157.084 19.4206 157.084 19.4206C157.084 19.4206 157.084 19.4206 157.084 19.4206C157.084 19.4206 157.084 19.4206 157.084 19.4206C157.084 19.4206 157.084 19.4206 157.084 19.4206C157.084 19.4206 157.084 19.4206 157.084 19.4206C157.084 19.4206 157.084 19.4206 157.084 19.4206C157.084 19.4206 157.084 19.4206 157.084 19.4206C157.084 19.4206 157.084 19.4206 157.085 19.4205C157.085 19.4205 157.085 19.4205 157.086 19.4205C157.086 19.4205 157.087 19.4204 157.089 19.4203L157.102 19.774C157.104 19.774 157.106 19.7739 157.107 19.7738C157.107 19.7738 157.107 19.7738 157.108 19.7738C157.108 19.7738 157.108 19.7738 157.108 19.7737C157.108 19.7737 157.108 19.7737 157.108 19.7737C157.108 19.7737 157.108 19.7737 157.108 19.7737C157.108 19.7737 157.108 19.7737 157.108 19.7737C157.108 19.7737 157.108 19.7737 157.108 19.7737C157.108 19.7737 157.108 19.7737 157.108 19.7737C157.108 19.7737 157.108 19.7737 157.108 19.7737C157.108 19.7737 157.108 19.7737 157.096 19.5972ZM155.94 6.01269L155.936 6.36664L155.936 6.36664L155.94 6.01269ZM156.641 6.26903L156.862 5.99279L156.862 5.99279L156.641 6.26903ZM155.434 6.15089L155.62 6.45201L155.62 6.45201L155.434 6.15089ZM155.07 6.55061L154.758 6.3839L154.758 6.3839L155.07 6.55061ZM155.045 6.59722L154.733 6.43051L154.709 6.47586L154.699 6.52622L155.045 6.59722ZM152.196 20.5152L152.538 20.6029L152.541 20.5946L152.542 20.5862L152.196 20.5152ZM152.154 20.8921L152.508 20.8768L152.508 20.8768L152.154 20.8921ZM152.307 21.3544L152.591 21.1432L152.591 21.1432L152.307 21.3544ZM152.914 21.6603L152.935 21.3069L152.935 21.3069L152.914 21.6603ZM153.651 21.4981L153.509 21.1737L153.509 21.1737L153.651 21.4981ZM153.672 21.4891L153.814 21.8134L153.829 21.8067L153.844 21.7985L153.672 21.4891ZM157.036 19.6213L157.208 19.931L157.219 19.9241L157.036 19.6213ZM157.044 19.6168L157.227 19.9197L157.227 19.9197L157.044 19.6168ZM157.065 19.6061L157.37 19.4261L157.214 19.1621L156.93 19.2787L157.065 19.6061ZM157.113 19.733L156.77 19.8202L156.77 19.8202L157.113 19.733ZM158.421 24.424L158.766 24.343L158.764 24.3352L158.762 24.3276L158.421 24.424ZM158.797 24.9103L158.98 24.6073L158.98 24.6073L158.797 24.9103ZM159.717 25.0405L159.778 25.3892L159.778 25.3892L159.717 25.0405ZM160.873 24.7982L160.8 24.4519L160.792 24.4535L160.785 24.4555L160.873 24.7982ZM162.387 24.4774L162.46 24.8237L162.486 24.8182L162.511 24.8089L162.387 24.4774ZM162.422 24.4644L162.546 24.7959L162.546 24.7959L162.422 24.4644ZM162.914 23.446L162.567 23.5123L162.567 23.5123L162.914 23.446ZM161.606 18.5909L161.253 18.6204L161.256 18.6536L161.265 18.6857L161.606 18.5909ZM161.605 18.584L161.633 18.2311L161.235 18.2002L161.252 18.599L161.605 18.584ZM165.26 18.9353L165.295 18.5831L165.295 18.5831L165.26 18.9353ZM165.265 18.9359L165.229 19.2882L165.237 19.2887L165.265 18.9359ZM165.8 18.9784L165.772 19.3313L165.796 19.3332L165.82 19.3319L165.8 18.9784ZM165.835 18.9766L165.854 19.33L165.854 19.33L165.835 18.9766ZM166.524 18.7175L166.29 18.4522L166.29 18.4522L166.524 18.7175ZM166.759 18.3053L167.108 18.3633L167.108 18.3633L166.759 18.3053ZM166.677 17.806L166.355 17.9533L166.355 17.9533L166.677 17.806ZM166.654 17.7576L166.976 17.6103L166.956 17.5649L166.923 17.527L166.654 17.7576ZM165.129 15.98L164.858 16.2076L164.861 16.2105L165.129 15.98ZM162.585 12.9503L162.856 12.7227L162.464 12.2547L162.253 12.8283L162.585 12.9503ZM162.263 13.829L161.931 13.7071L161.861 13.8967L161.989 14.053L162.263 13.829ZM164.409 16.4544L164.135 16.6785L164.141 16.686L164.409 16.4544ZM164.411 16.457L164.68 16.2265L164.679 16.2253L164.411 16.457ZM165.856 18.1411L166.192 18.0292L166.17 17.9633L166.125 17.9106L165.856 18.1411ZM165.864 18.1718L165.992 18.502L166.266 18.3959L166.212 18.1064L165.864 18.1718ZM165.859 18.1738L165.741 17.84L165.741 17.84L165.859 18.1738ZM165.853 18.1758L165.744 17.839L165.744 17.839L165.853 18.1758ZM165.804 18.187L165.776 18.5399L165.816 18.5431L165.856 18.5372L165.804 18.187ZM165.357 18.1515L165.322 18.5038L165.329 18.5044L165.357 18.1515ZM161.65 17.796L161.624 18.1491L161.624 18.1491L161.65 17.796ZM161.147 17.8758L161.294 18.198L161.294 18.198L161.147 17.8758ZM160.817 18.162L160.516 17.9758L160.516 17.9758L160.817 18.162ZM160.716 18.7219L161.064 18.6605L161.064 18.6605L160.716 18.7219ZM160.719 18.7386L160.37 18.8L160.373 18.817L160.378 18.8336L160.719 18.7386ZM160.723 18.7551L161.064 18.6602L161.064 18.6602L160.723 18.7551ZM162.025 23.5756L162.372 23.5093L162.372 23.5093L162.025 23.5756ZM162.025 23.7429L162.098 24.0892L162.302 24.0461L162.363 23.8473L162.025 23.7429ZM160.638 24.0368L160.564 23.6905L160.556 23.6923L160.548 23.6944L160.638 24.0368ZM160.626 24.0399L160.536 23.6975L160.536 23.6975L160.626 24.0399ZM159.54 24.2674L159.601 24.6161L159.54 24.2674ZM159.358 24.2761L159.307 24.6264L159.307 24.6264L159.358 24.2761ZM159.309 24.2616L159.492 23.9585L159.492 23.9585L159.309 24.2616ZM159.303 24.2563L158.956 24.3286L158.977 24.4266L159.045 24.4994L159.303 24.2563ZM159.303 24.2559L159.649 24.1836L159.647 24.1714L159.643 24.1595L159.303 24.2559ZM159.299 24.2439L158.959 24.3403L158.959 24.3403L159.299 24.2439ZM157.994 19.562L158.337 19.4747L158.337 19.4747L157.994 19.562ZM157.298 18.8304L157.374 18.4845L157.374 18.4845L157.298 18.8304ZM156.539 18.9634L156.711 19.273L156.719 19.2682L156.539 18.9634ZM153.228 20.8013L153.366 21.1272L153.384 21.1199L153.4 21.1108L153.228 20.8013ZM153.055 20.8613L152.702 20.8759L152.719 21.309L153.14 21.2049L153.055 20.8613ZM153.077 20.6822L153.419 20.7726L153.419 20.7726L153.077 20.6822ZM153.08 20.6727L153.422 20.763L153.424 20.7534L153.426 20.7437L153.08 20.6727ZM155.911 6.84453L155.616 6.64849L155.578 6.70594L155.564 6.77353L155.911 6.84453ZM155.936 6.81181L155.672 6.57563L155.672 6.57564L155.936 6.81181ZM155.943 6.80406L156.039 6.46323L155.841 6.4078L155.695 6.55184L155.943 6.80406ZM155.966 6.81221L156.103 6.48576L156.103 6.48576L155.966 6.81221ZM156.008 6.83403L156.278 6.60486L156.243 6.5633L156.196 6.53429L156.008 6.83403ZM158.797 10.1168L158.527 10.346L158.678 10.5234L158.9 10.4553L158.797 10.1168ZM159.717 9.83543L159.82 10.1739L160.338 10.0154L159.985 9.60464L159.717 9.83543ZM156.67 6.29266L156.938 6.06187L156.917 6.03696L156.891 6.01642L156.67 6.29266ZM155.936 6.36664C156.144 6.36878 156.322 6.46766 156.419 6.54527L156.862 5.99279C156.688 5.85311 156.36 5.663 155.943 5.65873L155.936 6.36664ZM155.62 6.45201C155.718 6.39153 155.827 6.36553 155.936 6.36664L155.943 5.65873C155.717 5.6564 155.472 5.71081 155.248 5.84977L155.62 6.45201ZM155.383 6.71732C155.446 6.59805 155.525 6.51053 155.62 6.45201L155.248 5.84977C155.028 5.98564 154.869 6.17556 154.758 6.3839L155.383 6.71732ZM155.358 6.76394L155.383 6.71732L154.758 6.3839L154.733 6.43051L155.358 6.76394ZM152.542 20.5862L155.392 6.66823L154.699 6.52622L151.849 20.4442L152.542 20.5862ZM152.508 20.8768C152.504 20.7837 152.517 20.6868 152.538 20.6029L151.853 20.4275C151.818 20.5637 151.793 20.7312 151.8 20.9075L152.508 20.8768ZM152.591 21.1432C152.534 21.0662 152.512 20.971 152.508 20.8768L151.8 20.9075C151.808 21.0797 151.85 21.3328 152.023 21.5655L152.591 21.1432ZM152.935 21.3069C152.763 21.2967 152.652 21.2259 152.591 21.1432L152.023 21.5655C152.221 21.8326 152.534 21.9924 152.893 22.0136L152.935 21.3069ZM153.509 21.1737C153.285 21.2718 153.095 21.3163 152.935 21.3069L152.893 22.0136C153.209 22.0323 153.517 21.9429 153.793 21.8224L153.509 21.1737ZM153.53 21.1647L153.509 21.1737L153.793 21.8224L153.814 21.8134L153.53 21.1647ZM156.864 19.3118L153.5 21.1796L153.844 21.7985L157.208 19.9307L156.864 19.3118ZM156.86 19.314L156.853 19.3184L157.219 19.9241L157.227 19.9197L156.86 19.314ZM156.93 19.2787C156.908 19.2878 156.884 19.2995 156.86 19.314L157.227 19.9197C157.22 19.9235 157.215 19.9263 157.211 19.9283C157.207 19.9303 157.203 19.932 157.2 19.9335L156.93 19.2787ZM157.456 19.6458C157.433 19.5537 157.403 19.4819 157.37 19.4261L156.76 19.7861C156.754 19.7754 156.761 19.7829 156.77 19.8202L157.456 19.6458ZM158.762 24.3276C158.385 22.9966 157.6 20.2121 157.456 19.6458L156.77 19.8202C156.917 20.3985 157.706 23.1965 158.08 24.5204L158.762 24.3276ZM158.98 24.6073C158.84 24.523 158.782 24.4125 158.766 24.343L158.076 24.5051C158.136 24.759 158.31 25.0301 158.614 25.2134L158.98 24.6073ZM159.656 24.6918C159.353 24.7447 159.13 24.6982 158.98 24.6073L158.614 25.2134C158.944 25.4127 159.35 25.464 159.778 25.3892L159.656 24.6918ZM160.785 24.4555C160.62 24.498 160.188 24.5988 159.656 24.6918L159.778 25.3892C160.328 25.293 160.779 25.1882 160.962 25.1408L160.785 24.4555ZM162.313 24.1311L160.8 24.4519L160.947 25.1444L162.46 24.8237L162.313 24.1311ZM162.297 24.1329L162.263 24.1459L162.511 24.8089L162.546 24.7959L162.297 24.1329ZM162.567 23.5123C162.635 23.8736 162.46 24.0722 162.297 24.1329L162.546 24.7959C163.05 24.6069 163.392 24.0589 163.262 23.3797L162.567 23.5123ZM161.265 18.6857C161.673 20.153 162.495 23.136 162.567 23.5123L163.262 23.3797C163.183 22.9653 162.348 19.9359 161.947 18.496L161.265 18.6857ZM161.252 18.599C161.252 18.6064 161.253 18.6136 161.253 18.6204L161.959 18.5613C161.959 18.5639 161.959 18.5665 161.959 18.569L161.252 18.599ZM165.295 18.5831C164.263 18.48 162.127 18.2696 161.633 18.2311L161.578 18.9369C162.063 18.9746 164.187 19.184 165.224 19.2876L165.295 18.5831ZM165.3 18.5836L165.295 18.5831L165.224 19.2876L165.229 19.2881L165.3 18.5836ZM165.828 18.6256L165.293 18.583L165.237 19.2887L165.772 19.3313L165.828 18.6256ZM165.816 18.6231L165.781 18.625L165.82 19.3319L165.854 19.33L165.816 18.6231ZM166.29 18.4522C166.158 18.5686 165.959 18.6153 165.816 18.6231L165.854 19.33C166.071 19.3181 166.456 19.2499 166.759 18.9829L166.29 18.4522ZM166.41 18.2473C166.397 18.3251 166.356 18.3938 166.29 18.4522L166.759 18.9829C166.927 18.8341 167.064 18.6257 167.108 18.3633L166.41 18.2473ZM166.355 17.9533C166.41 18.0734 166.423 18.1697 166.41 18.2473L167.108 18.3633C167.15 18.1098 167.094 17.8686 166.998 17.6587L166.355 17.9533ZM166.333 17.9048L166.355 17.9533L166.998 17.6587L166.976 17.6103L166.333 17.9048ZM164.861 16.2105L166.386 17.9881L166.923 17.527L165.398 15.7495L164.861 16.2105ZM162.314 13.1779L164.858 16.2076L165.4 15.7524L162.856 12.7227L162.314 13.1779ZM162.253 12.8283L161.931 13.7071L162.595 13.951L162.918 13.0722L162.253 12.8283ZM164.683 16.2303L162.537 13.605L161.989 14.053L164.135 16.6784L164.683 16.2303ZM164.679 16.2253L164.676 16.2227L164.141 16.686L164.143 16.6887L164.679 16.2253ZM166.125 17.9106L164.68 16.2265L164.142 16.6875L165.587 18.3716L166.125 17.9106ZM166.212 18.1064C166.207 18.0816 166.201 18.0558 166.192 18.0292L165.52 18.2529C165.52 18.2517 165.518 18.2463 165.516 18.2371L166.212 18.1064ZM165.976 18.5076C165.982 18.5058 165.987 18.5039 165.992 18.502L165.737 17.8415C165.738 17.8409 165.74 17.8404 165.741 17.84L165.976 18.5076ZM165.962 18.5126C165.967 18.511 165.972 18.5093 165.976 18.5076L165.741 17.84C165.742 17.8397 165.743 17.8393 165.744 17.839L165.962 18.5126ZM165.856 18.5372C165.887 18.5326 165.924 18.5249 165.962 18.5126L165.744 17.839C165.747 17.8379 165.749 17.8374 165.75 17.8373C165.751 17.8371 165.751 17.837 165.752 17.8369L165.856 18.5372ZM165.329 18.5044L165.776 18.5399L165.832 17.8342L165.385 17.7986L165.329 18.5044ZM161.624 18.1491C162.059 18.1808 164.269 18.3986 165.322 18.5037L165.392 17.7993C164.347 17.6949 162.123 17.4756 161.676 17.443L161.624 18.1491ZM161.294 18.198C161.383 18.1573 161.494 18.1396 161.624 18.1491L161.676 17.443C161.455 17.427 161.221 17.4533 161 17.5535L161.294 18.198ZM161.118 18.3483C161.151 18.2944 161.205 18.238 161.294 18.198L161 17.5535C160.776 17.6556 160.618 17.8111 160.516 17.9758L161.118 18.3483ZM161.064 18.6605C161.05 18.5776 161.053 18.4526 161.118 18.3483L160.516 17.9758C160.329 18.2773 160.334 18.5966 160.367 18.7833L161.064 18.6605ZM161.067 18.6773L161.064 18.6605L160.367 18.7832L160.37 18.8L161.067 18.6773ZM161.064 18.6602L161.06 18.6437L160.378 18.8336L160.382 18.85L161.064 18.6602ZM162.372 23.5093C162.3 23.1306 161.47 20.1187 161.064 18.6602L160.382 18.85C160.796 20.336 161.612 23.3013 161.677 23.6419L162.372 23.5093ZM162.363 23.8473C162.391 23.7565 162.398 23.6443 162.372 23.5093L161.677 23.6419C161.681 23.6624 161.68 23.6707 161.68 23.6689C161.68 23.6668 161.681 23.6559 161.686 23.6385L162.363 23.8473ZM160.711 24.3831L162.098 24.0892L161.951 23.3966L160.564 23.6905L160.711 24.3831ZM160.716 24.3823L160.727 24.3792L160.548 23.6944L160.536 23.6975L160.716 24.3823ZM159.601 24.6161C160.138 24.5222 160.57 24.4206 160.716 24.3823L160.536 23.6975C160.41 23.7305 159.998 23.828 159.479 23.9187L159.601 24.6161ZM159.307 24.6264C159.383 24.6374 159.479 24.6374 159.601 24.6161L159.479 23.9187C159.419 23.9291 159.399 23.9244 159.41 23.9258L159.307 24.6264ZM159.126 24.5647C159.173 24.593 159.232 24.6154 159.307 24.6264L159.41 23.9258C159.414 23.9265 159.425 23.9285 159.441 23.934C159.458 23.9402 159.476 23.9487 159.492 23.9585L159.126 24.5647ZM159.045 24.4994C159.067 24.5222 159.094 24.5449 159.127 24.5647L159.492 23.9585C159.519 23.9744 159.541 23.9932 159.56 24.0133L159.045 24.4994ZM158.956 24.3282L158.956 24.3286L159.649 24.1841L159.649 24.1836L158.956 24.3282ZM158.959 24.3403L158.962 24.3524L159.643 24.1595L159.64 24.1474L158.959 24.3403ZM157.651 19.6492C157.795 20.2169 158.583 23.0132 158.959 24.3403L159.64 24.1474C159.262 22.8132 158.478 20.0304 158.337 19.4747L157.651 19.6492ZM157.223 19.1762C157.435 19.2224 157.581 19.3754 157.651 19.6492L158.337 19.4747C158.22 19.015 157.915 18.6024 157.374 18.4845L157.223 19.1762ZM156.719 19.2682C156.83 19.2022 157.023 19.1326 157.223 19.1762L157.374 18.4845C156.936 18.3892 156.558 18.5407 156.359 18.6587L156.719 19.2682ZM153.4 21.1108L156.711 19.2729L156.367 18.654L153.056 20.4918L153.4 21.1108ZM153.14 21.2049C153.205 21.189 153.28 21.1639 153.366 21.1272L153.09 20.4754C153.031 20.5004 152.992 20.5124 152.97 20.5177L153.14 21.2049ZM152.735 20.5919C152.712 20.677 152.698 20.778 152.702 20.8759L153.409 20.8467C153.408 20.8336 153.411 20.8044 153.419 20.7726L152.735 20.5919ZM152.737 20.5823L152.735 20.5919L153.419 20.7726L153.422 20.763L152.737 20.5823ZM155.564 6.77353L152.733 20.6017L153.426 20.7437L156.258 6.91554L155.564 6.77353ZM155.672 6.57564C155.653 6.59674 155.635 6.62093 155.616 6.64849L156.206 7.04057C156.207 7.03929 156.205 7.04218 156.2 7.04798L155.672 6.57564ZM155.695 6.55184C155.687 6.55926 155.68 6.56718 155.672 6.57563L156.2 7.048C156.198 7.05033 156.195 7.05312 156.192 7.05628L155.695 6.55184ZM156.103 6.48576C156.081 6.47633 156.059 6.46892 156.039 6.46323L155.848 7.14489C155.839 7.14249 155.833 7.1402 155.829 7.13866L156.103 6.48576ZM156.196 6.53429C156.17 6.51774 156.139 6.50057 156.103 6.48576L155.829 7.13866C155.827 7.13741 155.824 7.13639 155.823 7.13575C155.822 7.1351 155.821 7.13446 155.82 7.13376L156.196 6.53429ZM159.067 9.88767L156.278 6.60486L155.738 7.0632L158.527 10.346L159.067 9.88767ZM158.9 10.4553L159.82 10.1739L159.613 9.49694L158.693 9.77836L158.9 10.4553ZM156.402 6.52345L159.448 10.0662L159.985 9.60464L156.938 6.06187L156.402 6.52345ZM156.419 6.54527L156.449 6.5689L156.891 6.01642L156.862 5.99279L156.419 6.54527Z" fill="#FFB100" mask="url(#path-7-outside-1_110_915)"/>
<path d="M126.488 21.6084C125.281 21.6084 124.102 21.4766 122.95 21.213C121.812 20.9354 120.876 20.5678 120.14 20.1099L121.722 16.53C122.416 16.9324 123.193 17.2585 124.053 17.5083C124.913 17.7441 125.739 17.8621 126.53 17.8621C127.21 17.8621 127.695 17.7996 127.987 17.6748C128.278 17.536 128.424 17.3348 128.424 17.0712C128.424 16.7659 128.23 16.537 127.841 16.3844C127.467 16.2317 126.842 16.0652 125.968 15.8849C124.844 15.649 123.908 15.3992 123.158 15.1356C122.409 14.8581 121.757 14.4141 121.202 13.8036C120.647 13.1792 120.369 12.3397 120.369 11.2852C120.369 10.3694 120.626 9.53691 121.139 8.78765C121.653 8.03838 122.416 7.44868 123.429 7.01855C124.456 6.58842 125.697 6.37335 127.154 6.37335C128.153 6.37335 129.132 6.48435 130.089 6.70636C131.06 6.91449 131.914 7.22668 132.649 7.64294L131.171 11.2019C129.742 10.4804 128.389 10.1197 127.113 10.1197C125.85 10.1197 125.219 10.4249 125.219 11.0354C125.219 11.3268 125.406 11.5488 125.781 11.7015C126.155 11.8402 126.773 11.9928 127.633 12.1593C128.743 12.3675 129.68 12.6103 130.443 12.8878C131.206 13.1514 131.865 13.5885 132.42 14.199C132.989 14.8095 133.273 15.642 133.273 16.6966C133.273 17.6123 133.017 18.4448 132.503 19.1941C131.99 19.9295 131.22 20.5192 130.193 20.9632C129.18 21.3933 127.945 21.6084 126.488 21.6084Z" fill="#FFB100"/>
<path fill-rule="evenodd" clip-rule="evenodd" d="M93.2294 6.4751H99.427H100.41H103.035H105.995H110.215C111.838 6.4751 113.268 6.77342 114.502 7.37005C115.751 7.95281 116.716 8.79227 117.395 9.88841C118.089 10.9846 118.436 12.275 118.436 13.7596C118.436 15.2443 118.089 16.5347 117.395 17.6308C116.716 18.727 115.751 19.5734 114.502 20.17C113.268 20.7528 111.838 21.0441 110.215 21.0441L103.543 21.0441L103.035 21.0441L100.416 21.0441C100.414 21.0441 100.412 21.0441 100.41 21.0441L99.1957 21.0441L93.2294 21.0441V6.4751ZM110.318 10.3139H110.358C112.095 10.3139 113.503 11.722 113.503 13.459V14.1065C113.503 15.8435 112.095 17.2516 110.358 17.2516H98.1482V17.2146H98.1412V10.3047H100.202C100.308 10.3047 100.411 10.3078 100.513 10.3139H107.946V10.3047H110.007C110.113 10.3047 110.217 10.3078 110.318 10.3139Z" fill="#FFB100"/>
<path fill-rule="evenodd" clip-rule="evenodd" d="M79.4292 19.4084L78.7991 21.0441H73.804L80.1727 6.4751H85.0013L91.37 21.0441H86.2917L85.3135 18.505H81.4354L82.5246 15.0778H84.0466L82.5246 10.4989L81.2448 14.3487L79.4292 19.4084Z" fill="#FFB100"/>
<path d="M8.57989 11.3484H7.45763C7.39126 11.0256 7.27511 10.742 7.10918 10.4977C6.94627 10.2533 6.74716 10.0481 6.51185 9.88222C6.27955 9.71328 6.02161 9.58657 5.73803 9.5021C5.45445 9.41763 5.1588 9.37539 4.85108 9.37539C4.28995 9.37539 3.78161 9.51718 3.32607 9.80077C2.87354 10.0844 2.51303 10.5022 2.24453 11.0543C1.97905 11.6063 1.84631 12.2836 1.84631 13.0861C1.84631 13.8886 1.97905 14.5659 2.24453 15.1179C2.51303 15.67 2.87354 16.0879 3.32607 16.3714C3.78161 16.655 4.28995 16.7968 4.85108 16.7968C5.1588 16.7968 5.45445 16.7546 5.73803 16.6701C6.02161 16.5856 6.27955 16.4604 6.51185 16.2945C6.74716 16.1256 6.94627 15.9189 7.10918 15.6746C7.27511 15.4272 7.39126 15.1436 7.45763 14.8238H8.57989C8.49542 15.2974 8.34156 15.7213 8.11831 16.0954C7.89507 16.4695 7.61752 16.7878 7.28567 17.0502C6.95381 17.3097 6.58124 17.5073 6.16793 17.643C5.75764 17.7788 5.31869 17.8467 4.85108 17.8467C4.06067 17.8467 3.35774 17.6536 2.74231 17.2674C2.12687 16.8813 1.64267 16.3322 1.2897 15.6203C0.936729 14.9083 0.760244 14.0636 0.760244 13.0861C0.760244 12.1086 0.936729 11.2639 1.2897 10.552C1.64267 9.83999 2.12687 9.29092 2.74231 8.90477C3.35774 8.51861 4.06067 8.32553 4.85108 8.32553C5.31869 8.32553 5.75764 8.39341 6.16793 8.52917C6.58124 8.66493 6.95381 8.86404 7.28567 9.1265C7.61752 9.38595 7.89507 9.70272 8.11831 10.0768C8.34156 10.4479 8.49542 10.8717 8.57989 11.3484ZM10.2486 17.72V10.7692H11.2803V11.819H11.3527C11.4795 11.4751 11.7087 11.1961 12.0406 10.9819C12.3724 10.7677 12.7465 10.6606 13.1628 10.6606C13.2413 10.6606 13.3393 10.6621 13.457 10.6651C13.5746 10.6681 13.6636 10.6726 13.724 10.6787V11.7647C13.6878 11.7557 13.6048 11.7421 13.4751 11.724C13.3484 11.7029 13.2141 11.6923 13.0723 11.6923C12.7345 11.6923 12.4328 11.7632 12.1673 11.905C11.9048 12.0438 11.6967 12.2369 11.5428 12.4842C11.392 12.7286 11.3165 13.0077 11.3165 13.3214V17.72H10.2486ZM14.9899 17.72V10.7692H16.0579V17.72H14.9899ZM15.533 9.61071C15.3248 9.61071 15.1453 9.53981 14.9944 9.39802C14.8466 9.25623 14.7727 9.08578 14.7727 8.88667C14.7727 8.68755 14.8466 8.5171 14.9944 8.37531C15.1453 8.23352 15.3248 8.16262 15.533 8.16262C15.7411 8.16262 15.9191 8.23352 16.0669 8.37531C16.2178 8.5171 16.2932 8.68755 16.2932 8.88667C16.2932 9.08578 16.2178 9.25623 16.0669 9.39802C15.9191 9.53981 15.7411 9.61071 15.533 9.61071ZM20.0593 17.8829C19.6189 17.8829 19.2192 17.7999 18.8601 17.634C18.5011 17.465 18.2161 17.2222 18.0049 16.9054C17.7937 16.5856 17.6881 16.1995 17.6881 15.747C17.6881 15.3487 17.7665 15.0259 17.9234 14.7786C18.0803 14.5282 18.29 14.3321 18.5524 14.1903C18.8149 14.0485 19.1045 13.9429 19.4213 13.8735C19.7411 13.8011 20.0624 13.7438 20.3852 13.7015C20.8075 13.6472 21.1499 13.6065 21.4124 13.5794C21.6779 13.5492 21.871 13.4994 21.9916 13.43C22.1153 13.3606 22.1772 13.24 22.1772 13.068V13.0318C22.1772 12.5853 22.055 12.2384 21.8106 11.991C21.5693 11.7436 21.2027 11.6199 20.711 11.6199C20.2011 11.6199 19.8014 11.7315 19.5118 11.9548C19.2222 12.178 19.0185 12.4164 18.9009 12.6698L17.8872 12.3078C18.0682 11.8854 18.3096 11.5566 18.6113 11.3213C18.916 11.0829 19.2478 10.917 19.6068 10.8235C19.9688 10.7269 20.3248 10.6787 20.6748 10.6787C20.898 10.6787 21.1545 10.7058 21.4441 10.7601C21.7367 10.8114 22.0188 10.9185 22.2903 11.0814C22.5648 11.2443 22.7926 11.4902 22.9736 11.819C23.1546 12.1479 23.2451 12.5883 23.2451 13.1404V17.72H22.1772V16.7787H22.1229C22.0505 16.9296 21.9298 17.091 21.7608 17.2629C21.5919 17.4349 21.3671 17.5812 21.0866 17.7019C20.806 17.8225 20.4636 17.8829 20.0593 17.8829ZM20.2223 16.9235C20.6446 16.9235 21.0006 16.8406 21.2902 16.6746C21.5828 16.5087 21.8031 16.2945 21.9509 16.032C22.1017 15.7696 22.1772 15.4935 22.1772 15.2039V14.2265C22.1319 14.2808 22.0324 14.3306 21.8785 14.3758C21.7277 14.418 21.5527 14.4558 21.3536 14.4889C21.1575 14.5191 20.9659 14.5463 20.7789 14.5704C20.5948 14.5915 20.4455 14.6096 20.3309 14.6247C20.0533 14.6609 19.7939 14.7197 19.5525 14.8012C19.3142 14.8796 19.1211 14.9988 18.9733 15.1587C18.8285 15.3155 18.7561 15.5297 18.7561 15.8013C18.7561 16.1723 18.8933 16.4529 19.1679 16.643C19.4454 16.83 19.7969 16.9235 20.2223 16.9235ZM27.819 17.8648C27.2398 17.8648 26.7284 17.7185 26.285 17.4258C25.8415 17.1302 25.4946 16.7139 25.2442 16.1769C24.9938 15.6368 24.8686 14.9988 24.8686 14.2627C24.8686 13.5326 24.9938 12.8991 25.2442 12.3621C25.4946 11.8251 25.843 11.4103 26.2895 11.1176C26.736 10.825 27.2519 10.6787 27.8371 10.6787C28.2897 10.6787 28.6472 10.7541 28.9096 10.9049C29.1751 11.0528 29.3772 11.2217 29.516 11.4118C29.6578 11.5988 29.7679 11.7527 29.8463 11.8733H29.9369V8.45224H31.0048V17.72H29.9731V16.652H29.8463C29.7679 16.7787 29.6563 16.9386 29.5115 17.1317C29.3667 17.3217 29.16 17.4922 28.8915 17.643C28.623 17.7909 28.2655 17.8648 27.819 17.8648ZM27.9638 16.9054C28.3922 16.9054 28.7542 16.7938 29.0499 16.5706C29.3455 16.3443 29.5703 16.032 29.7242 15.6338C29.878 15.2326 29.955 14.7695 29.955 14.2446C29.955 13.7257 29.8795 13.2716 29.7287 12.8825C29.5778 12.4903 29.3546 12.1856 29.0589 11.9684C28.7633 11.7481 28.3983 11.638 27.9638 11.638C27.5113 11.638 27.1342 11.7542 26.8325 11.9865C26.5339 12.2157 26.3091 12.528 26.1583 12.9232C26.0104 13.3154 25.9365 13.7558 25.9365 14.2446C25.9365 14.7393 26.0119 15.1888 26.1628 15.5931C26.3166 15.9943 26.5429 16.3141 26.8416 16.5525C27.1433 16.7878 27.5173 16.9054 27.9638 16.9054ZM35.9328 17.8648C35.3053 17.8648 34.7547 17.7154 34.2811 17.4168C33.8105 17.1181 33.4424 16.7003 33.1769 16.1633C32.9145 15.6263 32.7832 14.9988 32.7832 14.2808C32.7832 13.5567 32.9145 12.9247 33.1769 12.3847C33.4424 11.8447 33.8105 11.4253 34.2811 11.1267C34.7547 10.828 35.3053 10.6787 35.9328 10.6787C36.5603 10.6787 37.1094 10.828 37.58 11.1267C38.0537 11.4253 38.4217 11.8447 38.6842 12.3847C38.9497 12.9247 39.0824 13.5567 39.0824 14.2808C39.0824 14.9988 38.9497 15.6263 38.6842 16.1633C38.4217 16.7003 38.0537 17.1181 37.58 17.4168C37.1094 17.7154 36.5603 17.8648 35.9328 17.8648ZM35.9328 16.9054C36.4095 16.9054 36.8017 16.7832 37.1094 16.5389C37.4171 16.2945 37.6449 15.9732 37.7927 15.575C37.9405 15.1768 38.0144 14.7454 38.0144 14.2808C38.0144 13.8162 37.9405 13.3833 37.7927 12.982C37.6449 12.5808 37.4171 12.2565 37.1094 12.0091C36.8017 11.7617 36.4095 11.638 35.9328 11.638C35.4562 11.638 35.064 11.7617 34.7562 12.0091C34.4485 12.2565 34.2208 12.5808 34.0729 12.982C33.9251 13.3833 33.8512 13.8162 33.8512 14.2808C33.8512 14.7454 33.9251 15.1768 34.0729 15.575C34.2208 15.9732 34.4485 16.2945 34.7562 16.5389C35.064 16.7832 35.4562 16.9054 35.9328 16.9054ZM44.2966 20.3265V10.7692H45.3284V11.8733H45.4551C45.5335 11.7527 45.6421 11.5988 45.7809 11.4118C45.9227 11.2217 46.1248 11.0528 46.3873 10.9049C46.6528 10.7541 47.0118 10.6787 47.4643 10.6787C48.0496 10.6787 48.5655 10.825 49.0119 11.1176C49.4584 11.4103 49.8069 11.8251 50.0573 12.3621C50.3077 12.8991 50.4329 13.5326 50.4329 14.2627C50.4329 14.9988 50.3077 15.6368 50.0573 16.1769C49.8069 16.7139 49.4599 17.1302 49.0165 17.4258C48.573 17.7185 48.0616 17.8648 47.4824 17.8648C47.0359 17.8648 46.6784 17.7909 46.4099 17.643C46.1414 17.4922 45.9348 17.3217 45.79 17.1317C45.6452 16.9386 45.5335 16.7787 45.4551 16.652H45.3646V20.3265H44.2966ZM45.3465 14.2446C45.3465 14.7695 45.4234 15.2326 45.5773 15.6338C45.7311 16.032 45.9559 16.3443 46.2515 16.5706C46.5472 16.7938 46.9092 16.9054 47.3376 16.9054C47.7841 16.9054 48.1567 16.7878 48.4553 16.5525C48.757 16.3141 48.9833 15.9943 49.1341 15.5931C49.288 15.1888 49.3649 14.7393 49.3649 14.2446C49.3649 13.7558 49.2895 13.3154 49.1387 12.9232C48.9908 12.528 48.7661 12.2157 48.4644 11.9865C48.1657 11.7542 47.7901 11.638 47.3376 11.638C46.9032 11.638 46.5381 11.7481 46.2425 11.9684C45.9468 12.1856 45.7236 12.4903 45.5728 12.8825C45.4219 13.2716 45.3465 13.7257 45.3465 14.2446ZM54.8857 17.8648C54.2582 17.8648 53.7077 17.7154 53.234 17.4168C52.7634 17.1181 52.3953 16.7003 52.1298 16.1633C51.8674 15.6263 51.7362 14.9988 51.7362 14.2808C51.7362 13.5567 51.8674 12.9247 52.1298 12.3847C52.3953 11.8447 52.7634 11.4253 53.234 11.1267C53.7077 10.828 54.2582 10.6787 54.8857 10.6787C55.5132 10.6787 56.0623 10.828 56.5329 11.1267C57.0066 11.4253 57.3746 11.8447 57.6371 12.3847C57.9026 12.9247 58.0353 13.5567 58.0353 14.2808C58.0353 14.9988 57.9026 15.6263 57.6371 16.1633C57.3746 16.7003 57.0066 17.1181 56.5329 17.4168C56.0623 17.7154 55.5132 17.8648 54.8857 17.8648ZM54.8857 16.9054C55.3624 16.9054 55.7546 16.7832 56.0623 16.5389C56.37 16.2945 56.5978 15.9732 56.7456 15.575C56.8934 15.1768 56.9674 14.7454 56.9674 14.2808C56.9674 13.8162 56.8934 13.3833 56.7456 12.982C56.5978 12.5808 56.37 12.2565 56.0623 12.0091C55.7546 11.7617 55.3624 11.638 54.8857 11.638C54.4091 11.638 54.0169 11.7617 53.7092 12.0091C53.4014 12.2565 53.1737 12.5808 53.0259 12.982C52.878 13.3833 52.8041 13.8162 52.8041 14.2808C52.8041 14.7454 52.878 15.1768 53.0259 15.575C53.1737 15.9732 53.4014 16.2945 53.7092 16.5389C54.0169 16.7832 54.4091 16.9054 54.8857 16.9054ZM59.6655 17.72V10.7692H60.6973V11.819H60.7697C60.8964 11.4751 61.1257 11.1961 61.4575 10.9819C61.7894 10.7677 62.1635 10.6606 62.5798 10.6606C62.6582 10.6606 62.7563 10.6621 62.8739 10.6651C62.9916 10.6681 63.0806 10.6726 63.1409 10.6787V11.7647C63.1047 11.7557 63.0218 11.7421 62.892 11.724C62.7653 11.7029 62.6311 11.6923 62.4893 11.6923C62.1514 11.6923 61.8497 11.7632 61.5842 11.905C61.3218 12.0438 61.1136 12.2369 60.9598 12.4842C60.8089 12.7286 60.7335 13.0077 60.7335 13.3214V17.72H59.6655ZM65.1852 17.7924C64.962 17.7924 64.7704 17.7124 64.6105 17.5525C64.4506 17.3926 64.3707 17.2011 64.3707 16.9778C64.3707 16.7546 64.4506 16.563 64.6105 16.4031C64.7704 16.2432 64.962 16.1633 65.1852 16.1633C65.4085 16.1633 65.6 16.2432 65.7599 16.4031C65.9198 16.563 65.9998 16.7546 65.9998 16.9778C65.9998 17.1257 65.9621 17.2614 65.8866 17.3851C65.8142 17.5088 65.7162 17.6083 65.5925 17.6838C65.4718 17.7562 65.3361 17.7924 65.1852 17.7924ZM65.1852 12.6336C64.962 12.6336 64.7704 12.5536 64.6105 12.3937C64.4506 12.2338 64.3707 12.0423 64.3707 11.819C64.3707 11.5958 64.4506 11.4042 64.6105 11.2443C64.7704 11.0844 64.962 11.0045 65.1852 11.0045C65.4085 11.0045 65.6 11.0844 65.7599 11.2443C65.9198 11.4042 65.9998 11.5958 65.9998 11.819C65.9998 11.9669 65.9621 12.1026 65.8866 12.2263C65.8142 12.35 65.7162 12.4496 65.5925 12.525C65.4718 12.5974 65.3361 12.6336 65.1852 12.6336Z" fill="white"/>
</svg>
