<svg width="246" height="237" viewBox="0 0 246 237" fill="none" xmlns="http://www.w3.org/2000/svg">
<path fill-rule="evenodd" clip-rule="evenodd" d="M114.46 1.84814C107.883 4.2011 85.6698 12.0391 64.2214 19.574C25.6071 33.1383 26.9693 32.5494 23.5054 37.1862C21.8912 39.3473 21.7956 40.693 21.5675 64.5191C21.3748 84.574 21.5395 89.5789 22.3911 89.5739C23.5243 89.5673 38.0242 84.2297 40.485 82.912C41.8069 82.2046 41.9733 80.4528 42.1742 65.1746L42.3966 48.2213L56.3974 43.326C77.6778 35.8849 87.0089 32.5956 104.89 26.2285C113.895 23.0223 121.733 20.3992 122.305 20.3992C122.878 20.3992 133.855 24.1333 146.699 28.6976C159.542 33.2618 176.351 39.2155 184.052 41.9275C191.752 44.6396 199.071 47.2503 200.318 47.7296L202.582 48.601V72.6626V96.725L211.848 99.0006C216.944 100.252 221.589 101.459 222.171 101.683C223.023 102.011 223.183 96.0135 222.995 70.775C222.703 31.8692 224.094 34.9815 203.812 27.8608C197.474 25.6355 179.502 19.3137 163.874 13.8131C148.247 8.3124 132.895 2.91138 129.758 1.81108C122.854 -0.611884 121.323 -0.607768 114.46 1.84814ZM82.3401 76.769C69.629 78.5874 61.2557 80.9099 46.47 86.7219C38.7943 89.7386 30.8459 92.748 28.8076 93.4101C25.4992 94.4841 10.0769 96.9342 6.36508 96.9754C5.17007 96.9894 4.92382 97.7611 4.92382 101.492V105.992L12.9537 106.227L20.9836 106.463L16.6993 110.865C12.4266 115.256 12.4019 115.267 7.89692 114.983C3.40266 114.7 3.37797 114.712 2.89453 117.296C2.62687 118.724 1.86258 120.102 1.19548 120.358C0.278014 120.71 -0.0135234 122.287 0.000477389 126.821C0.0375384 139.037 4.5178 143.522 19.1305 145.965L22.2189 146.481V140.429C22.2189 132.688 24.8009 127.066 30.2744 122.886C37.7911 117.146 46.3358 116.325 54.9215 120.517C63.0708 124.494 67.0916 132.171 66.5587 142.733L66.2482 148.877H77.2718H88.2945L86.8154 146.612C86.0017 145.367 81.2167 138.788 76.1814 131.994C71.146 125.199 66.1799 118.429 65.1454 116.948L63.2636 114.257L82.4216 114.477L101.579 114.699L108.33 123.503L115.081 132.306L125.486 117.879C131.209 109.944 135.679 103.11 135.421 102.693C135.163 102.275 130.804 101.928 125.735 101.922C120.666 101.916 115.735 101.701 114.778 101.444C113.38 101.069 112.532 99.2543 110.455 92.1855C109.034 87.3494 107.871 83.0619 107.871 82.6575C107.871 80.2906 133.222 84.7931 141.638 88.6556C145.125 90.2559 145.408 90.2723 146.433 88.9381C149.451 85.0129 149.369 84.7601 144.342 82.5068C141.722 81.3324 136.058 79.434 131.755 78.2876C124.844 76.4469 121.96 76.171 107.047 75.9264C95.7817 75.7419 87.5607 76.022 82.3401 76.769ZM86.8698 83.4572C73.9767 85.4223 62.7225 88.7174 53.986 93.0865C50.0698 95.0449 50.6381 95.4996 59.2799 97.3147C65.8043 98.6852 100.917 100.926 101.814 100.029C102.268 99.5746 100.331 87.7662 99.1205 83.6088C98.6238 81.9031 97.1793 81.885 86.8698 83.4572ZM173.125 104.58C168.179 111.309 147.241 140.582 144.238 144.965L141.559 148.877L159.511 148.878H177.463L177.19 141.672C176.939 135.05 177.109 134.097 179.284 129.95C186.494 116.201 204.778 113.762 215.67 125.098C220.11 129.718 221.861 135.228 221.289 142.784L220.828 148.877L228.383 148.798C241.527 148.661 247.692 146.177 244.272 142.397C242.947 140.935 242.887 140.156 243.689 134.985C244.973 126.702 244.992 126.777 241.496 126.243C232.024 124.793 229.512 123.941 226.382 121.114C224.616 119.518 223.172 117.838 223.172 117.38C223.172 116.479 233.539 117.118 239.026 118.358C240.725 118.741 242.114 118.76 242.114 118.398C242.114 117.389 233.911 112.175 228.694 109.867C219.463 105.784 201.45 102.208 182.658 100.726L176.324 100.226L173.125 104.58ZM36.2313 124.324C20.7324 132.316 24.6954 155.971 41.9304 158.341C53.4498 159.926 63.6548 149.978 62.3543 138.433C61.8207 133.699 58.2241 127.879 54.1778 125.201C49.3805 122.026 41.4404 121.638 36.2313 124.324ZM191.43 124.071C185.218 126.893 181.169 133.437 181.169 140.656C181.169 145.402 182.661 148.876 186.409 152.859C190.336 157.033 193.233 158.236 199.403 158.257C203.967 158.273 205.42 157.913 208.19 156.079C217.567 149.874 219.915 139.163 213.86 130.21C209.005 123.033 199.463 120.422 191.43 124.071ZM55.162 160.879C51.5284 162.88 44.7413 163.896 40.7297 163.04C38.702 162.608 37.0433 162.431 37.0433 162.647C37.0433 162.862 38.5315 165.874 40.35 169.341C52.5562 192.609 79.7227 216.763 111.722 232.8C116.332 235.11 121.191 237 122.519 237C123.848 237 128.601 235.102 133.081 232.781C158.201 219.769 179.72 203.164 192.557 186.883C198.257 179.654 206.053 167.311 207.087 163.875C207.61 162.138 207.472 162.038 205.325 162.603C200.908 163.764 194.065 163.199 189.83 161.324C187.572 160.324 185.625 159.801 185.501 160.163C185.379 160.523 183.343 163.784 180.977 167.408C170.983 182.72 150.203 200.603 129.328 211.857L122.528 215.524L116.913 212.695C95.8311 202.079 70.5959 180.106 61.7506 164.665C60.1653 161.897 58.4975 159.658 58.0445 159.689C57.5916 159.72 56.2944 160.256 55.162 160.879Z" fill="#073359"/>
<path fill-rule="evenodd" clip-rule="evenodd" d="M181.169 62.2468L171.698 62.503L145.343 99.2098C130.848 119.399 118.087 137.021 116.986 138.371C115.082 140.702 114.928 140.748 113.887 139.292C113.285 138.448 109.739 133.776 106.007 128.908L99.2228 120.057L87.033 120.055L74.8433 120.052L76.8594 122.729C77.9679 124.2 86.926 136.153 96.7669 149.289C106.608 162.425 114.937 173.477 115.278 173.85C115.617 174.222 121.958 166.069 129.369 155.731C136.78 145.394 148.693 128.782 155.841 118.817C192.345 67.927 196.191 62.4313 195.378 62.3078C193.557 62.0319 189.7 62.0154 181.169 62.2468Z" fill="#EDBD24"/>
</svg>
