<svg width="1176" height="237" viewBox="0 0 1176 237" fill="none" xmlns="http://www.w3.org/2000/svg">
<path fill-rule="evenodd" clip-rule="evenodd" d="M114.46 1.84814C107.883 4.2011 85.6698 12.0391 64.2214 19.574C25.6071 33.1383 26.9693 32.5494 23.5054 37.1862C21.8912 39.3473 21.7956 40.693 21.5675 64.5191C21.3748 84.574 21.5395 89.5789 22.3911 89.5739C23.5243 89.5673 38.0242 84.2297 40.485 82.912C41.8069 82.2046 41.9733 80.4528 42.1742 65.1746L42.3966 48.2213L56.3974 43.326C77.6778 35.8849 87.0089 32.5956 104.89 26.2285C113.895 23.0223 121.733 20.3992 122.305 20.3992C122.878 20.3992 133.855 24.1333 146.699 28.6976C159.542 33.2618 176.351 39.2155 184.052 41.9275C191.752 44.6396 199.071 47.2503 200.318 47.7296L202.582 48.601V72.6626V96.725L211.848 99.0006C216.944 100.252 221.589 101.459 222.171 101.683C223.023 102.011 223.183 96.0135 222.995 70.775C222.703 31.8692 224.094 34.9815 203.812 27.8608C197.474 25.6355 179.502 19.3137 163.874 13.8131C148.247 8.3124 132.895 2.91138 129.758 1.81108C122.854 -0.611884 121.323 -0.607768 114.46 1.84814ZM82.3401 76.769C69.629 78.5874 61.2557 80.9099 46.47 86.7219C38.7943 89.7386 30.8459 92.748 28.8076 93.4101C25.4992 94.4841 10.0769 96.9342 6.36508 96.9754C5.17007 96.9894 4.92382 97.7611 4.92382 101.492V105.992L12.9537 106.227L20.9836 106.463L16.6993 110.865C12.4266 115.256 12.4019 115.267 7.89692 114.983C3.40266 114.7 3.37797 114.712 2.89453 117.296C2.62687 118.724 1.86258 120.102 1.19548 120.358C0.278014 120.71 -0.0135234 122.287 0.000477389 126.821C0.0375384 139.037 4.5178 143.522 19.1305 145.965L22.2189 146.481V140.429C22.2189 132.688 24.8009 127.066 30.2744 122.886C37.7911 117.146 46.3358 116.325 54.9215 120.517C63.0708 124.494 67.0916 132.171 66.5587 142.733L66.2482 148.877H77.2718H88.2945L86.8154 146.612C86.0017 145.367 81.2167 138.788 76.1814 131.994C71.146 125.199 66.1799 118.429 65.1454 116.948L63.2636 114.257L82.4216 114.477L101.579 114.699L108.33 123.503L115.081 132.306L125.486 117.879C131.209 109.944 135.679 103.11 135.421 102.693C135.163 102.275 130.804 101.928 125.735 101.922C120.666 101.916 115.735 101.701 114.778 101.444C113.38 101.069 112.532 99.2543 110.455 92.1855C109.034 87.3494 107.871 83.0619 107.871 82.6575C107.871 80.2906 133.222 84.7931 141.638 88.6556C145.125 90.2559 145.408 90.2723 146.433 88.9381C149.451 85.0129 149.369 84.7601 144.342 82.5068C141.722 81.3324 136.058 79.434 131.755 78.2876C124.844 76.4469 121.96 76.171 107.047 75.9264C95.7817 75.7419 87.5607 76.022 82.3401 76.769ZM86.8698 83.4572C73.9767 85.4223 62.7225 88.7174 53.986 93.0865C50.0698 95.0449 50.6381 95.4996 59.2799 97.3147C65.8043 98.6852 100.917 100.926 101.814 100.029C102.268 99.5746 100.331 87.7662 99.1205 83.6088C98.6238 81.9031 97.1793 81.885 86.8698 83.4572ZM173.125 104.58C168.179 111.309 147.241 140.582 144.238 144.965L141.559 148.877L159.511 148.878H177.463L177.19 141.672C176.939 135.05 177.109 134.097 179.284 129.95C186.494 116.201 204.778 113.762 215.67 125.098C220.11 129.718 221.861 135.228 221.289 142.784L220.828 148.877L228.383 148.798C241.527 148.661 247.692 146.177 244.272 142.397C242.947 140.935 242.887 140.156 243.689 134.985C244.973 126.702 244.992 126.777 241.496 126.243C232.024 124.793 229.512 123.941 226.382 121.114C224.616 119.518 223.172 117.838 223.172 117.38C223.172 116.479 233.539 117.118 239.026 118.358C240.725 118.741 242.114 118.76 242.114 118.398C242.114 117.389 233.911 112.175 228.694 109.867C219.463 105.784 201.45 102.208 182.658 100.726L176.324 100.226L173.125 104.58ZM36.2313 124.324C20.7324 132.316 24.6954 155.971 41.9304 158.341C53.4498 159.926 63.6548 149.978 62.3543 138.433C61.8207 133.699 58.2241 127.879 54.1778 125.201C49.3805 122.026 41.4404 121.638 36.2313 124.324ZM191.43 124.071C185.218 126.893 181.169 133.437 181.169 140.656C181.169 145.402 182.661 148.876 186.409 152.859C190.336 157.033 193.233 158.236 199.403 158.257C203.967 158.273 205.42 157.913 208.19 156.079C217.567 149.874 219.915 139.163 213.86 130.21C209.005 123.033 199.463 120.422 191.43 124.071ZM55.162 160.879C51.5284 162.88 44.7413 163.896 40.7297 163.04C38.702 162.608 37.0433 162.431 37.0433 162.647C37.0433 162.862 38.5315 165.874 40.35 169.341C52.5562 192.609 79.7227 216.763 111.722 232.8C116.332 235.11 121.191 237 122.519 237C123.848 237 128.601 235.102 133.081 232.781C158.201 219.769 179.72 203.164 192.557 186.883C198.257 179.654 206.053 167.311 207.087 163.875C207.61 162.138 207.472 162.038 205.325 162.603C200.908 163.764 194.065 163.199 189.83 161.324C187.572 160.324 185.625 159.801 185.501 160.163C185.379 160.523 183.343 163.784 180.977 167.408C170.983 182.72 150.203 200.603 129.328 211.857L122.528 215.524L116.913 212.695C95.8311 202.079 70.5959 180.106 61.7506 164.665C60.1653 161.897 58.4975 159.658 58.0445 159.689C57.5916 159.72 56.2944 160.256 55.162 160.879Z" fill="#073359"/>
<path fill-rule="evenodd" clip-rule="evenodd" d="M181.169 62.2468L171.698 62.503L145.343 99.2098C130.848 119.399 118.087 137.021 116.986 138.371C115.082 140.702 114.928 140.748 113.887 139.292C113.285 138.448 109.739 133.776 106.007 128.908L99.2228 120.057L87.033 120.055L74.8433 120.052L76.8594 122.729C77.9679 124.2 86.926 136.153 96.7669 149.289C106.608 162.425 114.937 173.477 115.278 173.85C115.617 174.222 121.958 166.069 129.369 155.731C136.78 145.394 148.693 128.782 155.841 118.817C192.345 67.927 196.191 62.4313 195.378 62.3078C193.557 62.0319 189.7 62.0154 181.169 62.2468Z" fill="#EDBD24"/>
<path d="M1099.33 131L1129.75 62.755H1145.35L1175.86 131H1159.29L1134.33 70.7494H1140.57L1115.52 131H1099.33ZM1114.54 116.376L1118.73 104.384H1153.83L1158.12 116.376H1114.54Z" fill="#073359"/>
<path d="M1065.6 131V75.6241H1043.76V62.755H1103.23V75.6241H1081.39V131H1065.6Z" fill="#073359"/>
<path d="M999.954 131V62.755H1015.75V118.131H1049.97V131H999.954Z" fill="#073359"/>
<path d="M953.442 132.17C943.758 132.17 936.186 129.473 930.727 124.078C925.267 118.683 922.537 110.981 922.537 100.972V62.755H938.331V100.387C938.331 106.887 939.663 111.566 942.328 114.426C944.993 117.286 948.73 118.716 953.54 118.716C958.35 118.716 962.087 117.286 964.752 114.426C967.416 111.566 968.749 106.887 968.749 100.387V62.755H984.348V100.972C984.348 110.981 981.618 118.683 976.158 124.078C970.699 129.473 963.127 132.17 953.442 132.17Z" fill="#073359"/>
<path d="M830.009 131V62.755H843.073L872.126 110.916H865.204L893.769 62.755H906.736L906.931 131H892.112L892.014 85.4708H894.744L871.931 123.786H864.814L841.513 85.4708H844.828V131H830.009Z" fill="#073359"/>
<path d="M718.786 131L749.203 62.755H764.802L795.318 131H778.744L753.786 70.7494H760.025L734.969 131H718.786ZM733.995 116.376L738.187 104.384H773.284L777.574 116.376H733.995Z" fill="#073359"/>
<path d="M668.536 131V62.755H684.329V118.131H718.549V131H668.536Z" fill="#073359"/>
<path d="M603.128 131V62.755H654.702V75.4291H618.824V118.326H655.969V131H603.128ZM617.654 102.532V90.248H650.509V102.532H617.654Z" fill="#073359"/>
<path d="M565.239 132.17C559.974 132.17 555.067 131.325 550.517 129.635C546.033 127.88 542.133 125.41 538.818 122.226C535.504 119.041 532.904 115.304 531.019 111.014C529.199 106.724 528.289 102.012 528.289 96.8775C528.289 91.7429 529.199 87.0307 531.019 82.741C532.904 78.4513 535.504 74.7141 538.818 71.5294C542.198 68.3446 546.13 65.9073 550.615 64.2174C555.1 62.4625 560.007 61.5851 565.336 61.5851C571.251 61.5851 576.581 62.625 581.325 64.7049C586.135 66.7197 590.165 69.7095 593.414 73.6742L583.275 83.0335C580.935 80.3687 578.335 78.3863 575.476 77.0864C572.616 75.7215 569.496 75.0391 566.116 75.0391C562.932 75.0391 560.007 75.5591 557.342 76.599C554.677 77.6389 552.37 79.1338 550.42 81.0837C548.47 83.0335 546.943 85.3408 545.838 88.0056C544.798 90.6704 544.278 93.6277 544.278 96.8775C544.278 100.127 544.798 103.085 545.838 105.749C546.943 108.414 548.47 110.721 550.42 112.671C552.37 114.621 554.677 116.116 557.342 117.156C560.007 118.196 562.932 118.716 566.116 118.716C569.496 118.716 572.616 118.066 575.476 116.766C578.335 115.401 580.935 113.354 583.275 110.624L593.414 119.983C590.165 123.948 586.135 126.97 581.325 129.05C576.581 131.13 571.218 132.17 565.239 132.17Z" fill="#073359"/>
<path d="M453.842 131V62.755H466.906L507.171 111.891H500.834V62.755H516.433V131H503.466L463.104 81.8636H469.441V131H453.842Z" fill="#073359"/>
<path d="M370.23 131L400.648 62.755H416.247L446.762 131H430.188L405.23 70.7494H411.469L386.414 131H370.23ZM385.439 116.376L389.631 104.384H424.728L429.018 116.376H385.439Z" fill="#073359"/>
<path d="M342.548 132.17C337.283 132.17 332.376 131.325 327.827 129.635C323.342 127.88 319.442 125.41 316.127 122.226C312.813 119.041 310.213 115.304 308.328 111.014C306.508 106.724 305.598 102.012 305.598 96.8775C305.598 91.7429 306.508 87.0307 308.328 82.741C310.213 78.4513 312.813 74.7141 316.127 71.5294C319.507 68.3446 323.439 65.9073 327.924 64.2174C332.409 62.4625 337.316 61.5851 342.645 61.5851C348.56 61.5851 353.89 62.625 358.634 64.7049C363.444 66.7197 367.474 69.7095 370.723 73.6742L360.584 83.0335C358.244 80.3687 355.644 78.3863 352.785 77.0864C349.925 75.7215 346.805 75.0391 343.425 75.0391C340.241 75.0391 337.316 75.5591 334.651 76.599C331.986 77.6389 329.679 79.1338 327.729 81.0837C325.779 83.0335 324.252 85.3408 323.147 88.0056C322.107 90.6704 321.587 93.6277 321.587 96.8775C321.587 100.127 322.107 103.085 323.147 105.749C324.252 108.414 325.779 110.721 327.729 112.671C329.679 114.621 331.986 116.116 334.651 117.156C337.316 118.196 340.241 118.716 343.425 118.716C346.805 118.716 349.925 118.066 352.785 116.766C355.644 115.401 358.244 113.354 360.584 110.624L370.723 119.983C367.474 123.948 363.444 126.97 358.634 129.05C353.89 131.13 348.527 132.17 342.548 132.17Z" fill="#073359"/>
<path d="M1061.38 189.45C1059.24 189.45 1057.24 189.088 1055.39 188.364C1053.57 187.641 1051.99 186.636 1050.65 185.349C1049.31 184.036 1048.26 182.508 1047.51 180.766C1046.76 179.024 1046.39 177.121 1046.39 175.058C1046.39 172.994 1046.76 171.091 1047.51 169.349C1048.26 167.607 1049.31 166.093 1050.65 164.806C1051.99 163.493 1053.57 162.474 1055.39 161.751C1057.22 161.027 1059.21 160.665 1061.38 160.665C1063.53 160.665 1065.5 161.027 1067.29 161.751C1069.11 162.448 1070.7 163.453 1072.04 164.766C1073.4 166.052 1074.45 167.567 1075.17 169.309C1075.92 171.051 1076.3 172.967 1076.3 175.058C1076.3 177.148 1075.92 179.064 1075.17 180.806C1074.45 182.548 1073.4 184.076 1072.04 185.389C1070.7 186.676 1069.11 187.681 1067.29 188.404C1065.5 189.101 1063.53 189.45 1061.38 189.45ZM1061.38 185.872C1062.94 185.872 1064.37 185.604 1065.68 185.068C1067.02 184.532 1068.18 183.781 1069.14 182.816C1070.13 181.825 1070.9 180.672 1071.43 179.359C1072 178.046 1072.28 176.612 1072.28 175.058C1072.28 173.503 1072 172.069 1071.43 170.756C1070.9 169.443 1070.13 168.304 1069.14 167.339C1068.18 166.347 1067.02 165.583 1065.68 165.047C1064.37 164.511 1062.94 164.243 1061.38 164.243C1059.8 164.243 1058.34 164.511 1057 165.047C1055.69 165.583 1054.54 166.347 1053.54 167.339C1052.55 168.304 1051.77 169.443 1051.21 170.756C1050.68 172.069 1050.41 173.503 1050.41 175.058C1050.41 176.612 1050.68 178.046 1051.21 179.359C1051.77 180.672 1052.55 181.825 1053.54 182.816C1054.54 183.781 1055.69 184.532 1057 185.068C1058.34 185.604 1059.8 185.872 1061.38 185.872Z" fill="#656565"/>
<path d="M1015.47 189.128V160.987H1027.33C1030.33 160.987 1032.97 161.577 1035.24 162.756C1037.55 163.935 1039.33 165.583 1040.59 167.701C1041.88 169.818 1042.52 172.27 1042.52 175.057C1042.52 177.845 1041.88 180.297 1040.59 182.414C1039.33 184.532 1037.55 186.18 1035.24 187.359C1032.97 188.538 1030.33 189.128 1027.33 189.128H1015.47ZM1019.49 185.63H1027.08C1029.42 185.63 1031.43 185.188 1033.11 184.304C1034.83 183.419 1036.16 182.187 1037.09 180.605C1038.03 178.997 1038.5 177.148 1038.5 175.057C1038.5 172.94 1038.03 171.091 1037.09 169.51C1036.16 167.928 1034.83 166.696 1033.11 165.811C1031.43 164.927 1029.42 164.484 1027.08 164.484H1019.49V185.63Z" fill="#656565"/>
<path d="M1003.02 189.128V160.987H1007.04V189.128H1003.02Z" fill="#656565"/>
<path d="M984.67 189.45C982.499 189.45 980.502 189.101 978.68 188.404C976.857 187.681 975.276 186.676 973.936 185.389C972.596 184.076 971.551 182.548 970.8 180.806C970.05 179.064 969.675 177.148 969.675 175.058C969.675 172.967 970.05 171.051 970.8 169.309C971.551 167.567 972.596 166.052 973.936 164.766C975.303 163.453 976.898 162.448 978.72 161.751C980.543 161.027 982.553 160.665 984.75 160.665C986.975 160.665 989.012 161.027 990.861 161.751C992.71 162.474 994.278 163.56 995.565 165.007L993.072 167.5C991.92 166.374 990.66 165.557 989.293 165.047C987.953 164.511 986.492 164.243 984.911 164.243C983.303 164.243 981.802 164.511 980.409 165.047C979.042 165.583 977.849 166.334 976.831 167.299C975.839 168.263 975.062 169.416 974.499 170.756C973.963 172.069 973.695 173.503 973.695 175.058C973.695 176.585 973.963 178.019 974.499 179.359C975.062 180.672 975.839 181.825 976.831 182.816C977.849 183.781 979.042 184.532 980.409 185.068C981.775 185.604 983.263 185.872 984.871 185.872C986.372 185.872 987.806 185.644 989.173 185.188C990.566 184.706 991.853 183.915 993.032 182.816L995.323 185.872C993.93 187.051 992.295 187.949 990.419 188.565C988.57 189.155 986.653 189.45 984.67 189.45ZM995.323 185.872L991.464 185.349V174.897H995.323V185.872Z" fill="#656565"/>
<path d="M945.074 189.128V160.987H964.934V164.484H949.094V185.63H965.497V189.128H945.074ZM948.733 176.545V173.128H963.205V176.545H948.733Z" fill="#656565"/>
<path d="M927.067 189.128V164.484H917.419V160.987H940.696V164.484H931.047V189.128H927.067Z" fill="#656565"/>
<path d="M900.813 189.45C898.668 189.45 896.672 189.088 894.823 188.364C893 187.641 891.419 186.636 890.079 185.349C888.739 184.036 887.693 182.508 886.943 180.766C886.193 179.024 885.817 177.121 885.817 175.058C885.817 172.994 886.193 171.091 886.943 169.349C887.693 167.607 888.739 166.093 890.079 164.806C891.419 163.493 893 162.474 894.823 161.751C896.645 161.027 898.642 160.665 900.813 160.665C902.957 160.665 904.926 161.027 906.722 161.751C908.545 162.448 910.126 163.453 911.466 164.766C912.833 166.052 913.878 167.567 914.602 169.309C915.352 171.051 915.727 172.967 915.727 175.058C915.727 177.148 915.352 179.064 914.602 180.806C913.878 182.548 912.833 184.076 911.466 185.389C910.126 186.676 908.545 187.681 906.722 188.404C904.926 189.101 902.957 189.45 900.813 189.45ZM900.813 185.872C902.367 185.872 903.801 185.604 905.114 185.068C906.454 184.532 907.607 183.781 908.571 182.816C909.563 181.825 910.327 180.672 910.863 179.359C911.426 178.046 911.707 176.612 911.707 175.058C911.707 173.503 911.426 172.069 910.863 170.756C910.327 169.443 909.563 168.304 908.571 167.339C907.607 166.347 906.454 165.583 905.114 165.047C903.801 164.511 902.367 164.243 900.813 164.243C899.231 164.243 897.771 164.511 896.431 165.047C895.117 165.583 893.965 166.347 892.973 167.339C891.982 168.304 891.204 169.443 890.642 170.756C890.106 172.069 889.838 173.503 889.838 175.058C889.838 176.612 890.106 178.046 890.642 179.359C891.204 180.672 891.982 181.825 892.973 182.816C893.965 183.781 895.117 184.532 896.431 185.068C897.771 185.604 899.231 185.872 900.813 185.872Z" fill="#656565"/>
<path d="M858.899 189.128V160.987H869.874C873.519 160.987 876.387 161.858 878.478 163.6C880.568 165.315 881.613 167.714 881.613 170.796C881.613 172.833 881.144 174.588 880.206 176.063C879.268 177.51 877.928 178.622 876.186 179.399C874.444 180.176 872.34 180.565 869.874 180.565H861.11L862.92 178.716V189.128H858.899ZM877.714 189.128L870.558 178.917H874.859L882.096 189.128H877.714ZM862.92 179.118L861.11 177.148H869.754C872.327 177.148 874.27 176.599 875.583 175.5C876.923 174.374 877.593 172.806 877.593 170.796C877.593 168.786 876.923 167.232 875.583 166.133C874.27 165.034 872.327 164.484 869.754 164.484H861.11L862.92 162.474V179.118Z" fill="#656565"/>
<path d="M830.279 189.128V160.987H841.254C843.72 160.987 845.824 161.376 847.566 162.153C849.308 162.93 850.648 164.056 851.586 165.53C852.524 167.004 852.993 168.759 852.993 170.796C852.993 172.833 852.524 174.588 851.586 176.063C850.648 177.51 849.308 178.635 847.566 179.439C845.824 180.217 843.72 180.605 841.254 180.605H832.49L834.299 178.716V189.128H830.279ZM834.299 179.118L832.49 177.108H841.134C843.707 177.108 845.65 176.558 846.963 175.46C848.303 174.361 848.973 172.806 848.973 170.796C848.973 168.786 848.303 167.232 846.963 166.133C845.65 165.034 843.707 164.484 841.134 164.484H832.49L834.299 162.474V179.118Z" fill="#656565"/>
<path d="M790.274 189.128V160.987H801.249C804.894 160.987 807.762 161.858 809.853 163.6C811.943 165.315 812.988 167.714 812.988 170.796C812.988 172.833 812.519 174.588 811.581 176.063C810.643 177.51 809.303 178.622 807.561 179.399C805.819 180.176 803.715 180.565 801.249 180.565H792.486L794.295 178.716V189.128H790.274ZM809.089 189.128L801.933 178.917H806.234L813.471 189.128H809.089ZM794.295 179.118L792.486 177.148H801.129C803.702 177.148 805.645 176.599 806.958 175.5C808.298 174.374 808.968 172.806 808.968 170.796C808.968 168.786 808.298 167.232 806.958 166.133C805.645 165.034 803.702 164.484 801.129 164.484H792.486L794.295 162.474V179.118Z" fill="#656565"/>
<path d="M777.829 189.128V160.987H781.849V189.128H777.829Z" fill="#656565"/>
<path d="M759.479 189.45C757.308 189.45 755.311 189.101 753.489 188.404C751.666 187.681 750.085 186.676 748.745 185.389C747.405 184.076 746.359 182.548 745.609 180.806C744.859 179.064 744.483 177.148 744.483 175.058C744.483 172.967 744.859 171.051 745.609 169.309C746.359 167.567 747.405 166.052 748.745 164.766C750.112 163.453 751.706 162.448 753.529 161.751C755.351 161.027 757.361 160.665 759.559 160.665C761.783 160.665 763.82 161.027 765.67 161.751C767.519 162.474 769.087 163.56 770.373 165.007L767.881 167.5C766.728 166.374 765.469 165.557 764.102 165.047C762.762 164.511 761.301 164.243 759.72 164.243C758.112 164.243 756.611 164.511 755.217 165.047C753.85 165.583 752.658 166.334 751.639 167.299C750.648 168.263 749.87 169.416 749.308 170.756C748.772 172.069 748.504 173.503 748.504 175.058C748.504 176.585 748.772 178.019 749.308 179.359C749.87 180.672 750.648 181.825 751.639 182.816C752.658 183.781 753.85 184.532 755.217 185.068C756.584 185.604 758.072 185.872 759.68 185.872C761.18 185.872 762.614 185.644 763.981 185.188C765.375 184.706 766.661 183.915 767.84 182.816L770.132 185.872C768.738 187.051 767.103 187.949 765.227 188.565C763.378 189.155 761.462 189.45 759.479 189.45ZM770.132 185.872L766.273 185.349V174.897H770.132V185.872Z" fill="#656565"/>
<path d="M734.33 189.128V160.987H738.35V189.128H734.33Z" fill="#656565"/>
<path d="M705.121 189.128V160.987H716.096C719.741 160.987 722.608 161.858 724.699 163.6C726.789 165.315 727.835 167.714 727.835 170.796C727.835 172.833 727.365 174.588 726.427 176.063C725.489 177.51 724.149 178.622 722.407 179.399C720.665 180.176 718.561 180.565 716.096 180.565H707.332L709.141 178.716V189.128H705.121ZM723.935 189.128L716.779 178.917H721.081L728.317 189.128H723.935ZM709.141 179.118L707.332 177.148H715.975C718.548 177.148 720.491 176.599 721.804 175.5C723.144 174.374 723.814 172.806 723.814 170.796C723.814 168.786 723.144 167.232 721.804 166.133C720.491 165.034 718.548 164.484 715.975 164.484H707.332L709.141 162.474V179.118Z" fill="#656565"/>
<path d="M692.676 189.128V160.987H696.696V189.128H692.676Z" fill="#656565"/>
<path d="M659.462 189.128V160.987H671.322C674.324 160.987 676.963 161.577 679.242 162.756C681.546 163.935 683.329 165.583 684.588 167.701C685.875 169.818 686.518 172.27 686.518 175.057C686.518 177.845 685.875 180.297 684.588 182.414C683.329 184.532 681.546 186.18 679.242 187.359C676.963 188.538 674.324 189.128 671.322 189.128H659.462ZM663.483 185.63H671.081C673.412 185.63 675.422 185.188 677.111 184.304C678.826 183.419 680.153 182.187 681.091 180.605C682.029 178.997 682.498 177.148 682.498 175.057C682.498 172.94 682.029 171.091 681.091 169.51C680.153 167.928 678.826 166.696 677.111 165.811C675.422 164.927 673.412 164.484 671.081 164.484H663.483V185.63Z" fill="#656565"/>
<path d="M621.734 189.128V160.987H641.593V164.484H625.754V185.63H642.156V189.128H621.734ZM625.392 176.545V173.128H639.865V176.545H625.392Z" fill="#656565"/>
<path d="M588.521 189.128V160.987H600.38C603.382 160.987 606.022 161.577 608.3 162.756C610.605 163.935 612.387 165.583 613.646 167.701C614.933 169.818 615.576 172.27 615.576 175.057C615.576 177.845 614.933 180.297 613.646 182.414C612.387 184.532 610.605 186.18 608.3 187.359C606.022 188.538 603.382 189.128 600.38 189.128H588.521ZM592.541 185.63H600.139C602.47 185.63 604.481 185.188 606.169 184.304C607.884 183.419 609.211 182.187 610.149 180.605C611.087 178.997 611.556 177.148 611.556 175.057C611.556 172.94 611.087 171.091 610.149 169.51C609.211 167.928 607.884 166.696 606.169 165.811C604.481 164.927 602.47 164.484 600.139 164.484H592.541V185.63Z" fill="#656565"/>
<path d="M556.665 189.45C554.521 189.45 552.524 189.088 550.675 188.364C548.853 187.641 547.271 186.636 545.931 185.349C544.591 184.036 543.546 182.508 542.796 180.766C542.045 179.024 541.67 177.121 541.67 175.058C541.67 172.994 542.045 171.091 542.796 169.349C543.546 167.607 544.591 166.093 545.931 164.806C547.271 163.493 548.853 162.474 550.675 161.751C552.498 161.027 554.494 160.665 556.665 160.665C558.809 160.665 560.779 161.027 562.575 161.751C564.397 162.448 565.978 163.453 567.319 164.766C568.685 166.052 569.731 167.567 570.454 169.309C571.205 171.051 571.58 172.967 571.58 175.058C571.58 177.148 571.205 179.064 570.454 180.806C569.731 182.548 568.685 184.076 567.319 185.389C565.978 186.676 564.397 187.681 562.575 188.404C560.779 189.101 558.809 189.45 556.665 189.45ZM556.665 185.872C558.22 185.872 559.653 185.604 560.967 185.068C562.307 184.532 563.459 183.781 564.424 182.816C565.416 181.825 566.179 180.672 566.715 179.359C567.278 178.046 567.56 176.612 567.56 175.058C567.56 173.503 567.278 172.069 566.715 170.756C566.179 169.443 565.416 168.304 564.424 167.339C563.459 166.347 562.307 165.583 560.967 165.047C559.653 164.511 558.22 164.243 556.665 164.243C555.084 164.243 553.623 164.511 552.283 165.047C550.97 165.583 549.817 166.347 548.826 167.339C547.834 168.304 547.057 169.443 546.494 170.756C545.958 172.069 545.69 173.503 545.69 175.058C545.69 176.612 545.958 178.046 546.494 179.359C547.057 180.672 547.834 181.825 548.826 182.816C549.817 183.781 550.97 184.532 552.283 185.068C553.623 185.604 555.084 185.872 556.665 185.872Z" fill="#656565"/>
<path d="M526.347 189.128V164.484H516.699V160.987H539.975V164.484H530.327V189.128H526.347Z" fill="#656565"/>
<path d="M508.314 189.128V160.987H512.334V189.128H508.314Z" fill="#656565"/>
<path d="M481.382 189.128V160.987H501.241V164.484H485.402V185.63H501.804V189.128H481.382ZM485.04 176.545V173.128H499.513V176.545H485.04Z" fill="#656565"/>
<path d="M452.173 189.128V160.987H463.148C466.793 160.987 469.661 161.858 471.751 163.6C473.842 165.315 474.887 167.714 474.887 170.796C474.887 172.833 474.418 174.588 473.48 176.063C472.542 177.51 471.202 178.622 469.46 179.399C467.717 180.176 465.614 180.565 463.148 180.565H454.384L456.193 178.716V189.128H452.173ZM470.987 189.128L463.831 178.917H468.133L475.369 189.128H470.987ZM456.193 179.118L454.384 177.148H463.027C465.6 177.148 467.543 176.599 468.857 175.5C470.197 174.374 470.867 172.806 470.867 170.796C470.867 168.786 470.197 167.232 468.857 166.133C467.543 165.034 465.6 164.484 463.027 164.484H454.384L456.193 162.474V179.118Z" fill="#656565"/>
<path d="M439.728 189.128V160.987H443.748V189.128H439.728Z" fill="#656565"/>
<path d="M406.514 189.128V160.987H418.374C421.375 160.987 424.015 161.577 426.293 162.756C428.598 163.935 430.38 165.583 431.64 167.701C432.927 169.818 433.57 172.27 433.57 175.057C433.57 177.845 432.927 180.297 431.64 182.414C430.38 184.532 428.598 186.18 426.293 187.359C424.015 188.538 421.375 189.128 418.374 189.128H406.514ZM410.534 185.63H418.132C420.464 185.63 422.474 185.188 424.163 184.304C425.878 183.419 427.205 182.187 428.143 180.605C429.081 178.997 429.55 177.148 429.55 175.057C429.55 172.94 429.081 171.091 428.143 169.51C427.205 167.928 425.878 166.696 424.163 165.811C422.474 164.927 420.464 164.484 418.132 164.484H410.534V185.63Z" fill="#656565"/>
<path d="M375.576 189.45C371.878 189.45 368.97 188.391 366.853 186.274C364.735 184.156 363.677 181.061 363.677 176.987V160.987H367.697V176.826C367.697 179.962 368.38 182.254 369.747 183.701C371.141 185.148 373.097 185.872 375.617 185.872C378.163 185.872 380.119 185.148 381.486 183.701C382.88 182.254 383.577 179.962 383.577 176.826V160.987H387.476V176.987C387.476 181.061 386.417 184.156 384.3 186.274C382.21 188.391 379.302 189.45 375.576 189.45Z" fill="#656565"/>
<path d="M336.986 189.128V160.987H356.845V164.484H341.006V185.63H357.408V189.128H336.986ZM340.644 176.545V173.128H355.117V176.545H340.644Z" fill="#656565"/>
<path d="M320.218 189.45C318.074 189.45 316.024 189.128 314.068 188.485C312.111 187.815 310.57 186.957 309.444 185.912L310.932 182.776C312.004 183.714 313.371 184.491 315.032 185.108C316.694 185.724 318.423 186.033 320.218 186.033C321.853 186.033 323.18 185.845 324.198 185.47C325.217 185.094 325.967 184.585 326.45 183.942C326.932 183.272 327.173 182.522 327.173 181.691C327.173 180.726 326.852 179.949 326.208 179.359C325.592 178.769 324.775 178.3 323.756 177.952C322.764 177.577 321.666 177.255 320.46 176.987C319.254 176.719 318.034 176.411 316.801 176.063C315.595 175.687 314.483 175.218 313.464 174.655C312.473 174.093 311.669 173.342 311.052 172.404C310.436 171.439 310.128 170.207 310.128 168.706C310.128 167.258 310.503 165.932 311.253 164.726C312.031 163.493 313.21 162.515 314.791 161.791C316.399 161.041 318.436 160.665 320.902 160.665C322.537 160.665 324.158 160.88 325.766 161.309C327.374 161.737 328.768 162.354 329.947 163.158L328.62 166.374C327.414 165.57 326.141 164.994 324.801 164.645C323.461 164.27 322.161 164.082 320.902 164.082C319.321 164.082 318.021 164.283 317.002 164.685C315.984 165.088 315.233 165.624 314.751 166.294C314.295 166.964 314.068 167.714 314.068 168.545C314.068 169.536 314.376 170.327 314.992 170.917C315.635 171.506 316.453 171.975 317.444 172.324C318.463 172.672 319.575 172.994 320.781 173.289C321.987 173.557 323.193 173.865 324.399 174.213C325.632 174.562 326.744 175.017 327.736 175.58C328.754 176.143 329.572 176.893 330.188 177.831C330.805 178.769 331.113 179.975 331.113 181.45C331.113 182.87 330.724 184.197 329.947 185.43C329.17 186.636 327.964 187.614 326.329 188.364C324.721 189.088 322.684 189.45 320.218 189.45Z" fill="#656565"/>
</svg>
